<svg width="802.4" height="77.7" xmlns="http://www.w3.org/2000/svg" xml:space="preserve" version="1.1">

 <g>
  <title>Layer 1</title>
  <path id="svg_1" fill="#34CC81" d="m35.5,0c-21.1,0 -35.5,12.8 -35.5,35.9l0,40.3l20.8,0l0,-16.5l29.2,0l0,16.5l21.1,0l0,-40.3c0,-23.1 -14.4,-35.9 -35.6,-35.9zm14.4,43.3l-29.1,0l0,-9.3c0,-11.3 6,-16.5 14.6,-16.5c8.5,0 14.5,5.2 14.5,16.5l0,9.3z" class="st0"/>
  <path id="svg_2" fill="#34CC81" d="m191.3,23.2c0,-3.7 3.2,-6.7 12.1,-6.7c6.5,0 13.6,1.9 20.7,5.8l6.5,-15.7c-7.4,-4.3 -17.4,-6.6 -27.2,-6.6c-22.2,0 -33.1,10.9 -33.1,24.2c0,27.7 42.5,19.1 42.5,31c0,3.6 -3.4,6.1 -12.2,6.1c-8.6,0 -18,-3 -24.6,-7.4l-6.9,15.6c7,4.9 19.2,8.2 31.5,8.2c22.2,0 33.1,-11.1 33.1,-24.1c-0.1,-27.5 -42.4,-19 -42.4,-30.4z" class="st0"/>
  <path id="svg_3" fill="#ffffff" d="m241.7,1.5l0,4.9l26.9,0l0,69.8l5.5,0l0,-69.8l26.9,0l0,-4.9l-59.3,0z" class="st1"/>
  <path id="svg_4" fill="#ffffff" d="m420.3,1c-18.3,0 -30.4,10.9 -30.4,32.4l0,42.8l5.4,0l0,-23.1l49.9,0l0,23.1l5.5,0l0,-42.8c0,-21.6 -12,-32.4 -30.4,-32.4zm24.9,47.2l-49.9,0l0,-15.3c0,-18 9.5,-26.9 25,-26.9c15.5,0 25,8.9 25,26.9l0,15.3l-0.1,0z" class="st1"/>
  <path id="svg_5" fill="#ffffff" d="m503.2,71.7c-19.1,0 -33.5,-14.1 -33.5,-32.9c0,-18.8 14.4,-32.9 33.5,-32.9c8.8,0 16.5,2.6 23,8.9l3.4,-3.5c-6.6,-6.9 -16.1,-10.3 -26.6,-10.3c-22.2,0 -38.7,16.1 -38.7,37.9c0,21.8 16.5,37.9 38.7,37.9c10.6,0 20.1,-3.5 26.6,-10.5l-3.4,-3.5c-6.5,6.2 -14.3,8.9 -23,8.9z" class="st1"/>
  <path id="svg_6" fill="#ffffff" d="m709.7,1.5l0,64.9l-50.8,-64.9l-4.6,0l0,74.7l5.5,0l0,-64.9l50.9,64.9l4.5,0l0,-74.7l-5.5,0z" class="st1"/>
  <path id="svg_7" fill="#ffffff" d="m796.8,64.9c-6.1,4.9 -13.3,6.8 -21.2,6.8c-19.4,0 -33.8,-14.2 -33.8,-32.9c0,-18.8 14.4,-32.9 33.8,-32.9c9.1,0 16.8,2.4 23.4,8.9l3.4,-3.6c-6.6,-6.8 -16.1,-10.2 -26.9,-10.2c-22.6,0 -39.2,16.1 -39.2,37.9c0,21.8 16.5,37.9 39.1,37.9c10.2,0 19.9,-3.2 26.7,-9.6l0,-28l-5.2,0l0,25.7l-0.1,0z" class="st1"/>
  <path id="svg_8" fill="#34CC81" d="m121.5,1.5l-35.3,0l0,16.9l21.1,0l3.2,0l10.2,0c12.7,0 21.2,7.6 21.2,20.5c0,12.9 -8.6,20.5 -21.2,20.5l-13.3,0l0,-16l-21.2,0l0,32.9l35.3,0c24.8,0 41.7,-14.4 41.7,-37.4c0,-23 -16.9,-37.4 -41.7,-37.4z" class="st0"/>
  <path id="svg_9" fill="#ffffff" d="m316.4,47l0,29.2l5.5,0l0,-24.4l19,0c2.6,0 4.9,-0.2 7.3,-0.5l17.8,25l6.2,0l-18.7,-26.1c11.1,-3.3 17.5,-11.5 17.5,-23.4c0,-15.8 -11.3,-25.2 -30.1,-25.2l-24.5,0l0,4.9l24.5,0c16,0 24.5,7.4 24.5,20.3c0,12.8 -8.5,20.3 -24.5,20.3l-24.5,0l0,-0.1z" class="st1"/>
  <polygon id="svg_10" fill="#ffffff" points="553.2,49.5 553.2,6.4 553.2,1.5 547.8,1.5 547.8,76.2 553.2,76.2 553.2,66.2 553.2,56.6 " class="st1"/>
  <polygon id="svg_11" fill="#ffffff" points="568.9,35.4 601.8,1.5 595.2,1.5 562,35.6 597.4,76.2 604,76.2 " class="st1"/>
  <polygon id="svg_12" fill="#ffffff" points="622.8,1.5 622.8,24.6 622.8,30.9 622.8,76.2 628.2,76.2 628.2,30.9 628.2,24.6 628.2,1.5 " class="st1"/>
 </g>
</svg>