<svg width="105" height="98" xmlns="http://www.w3.org/2000/svg" fill="none">

 <g>
  <title>Layer 1</title>
  <rect id="svg_1" fill="#34cc81" transform="matrix(-1 0 0 1 95.8262 16.3108)" rx="6" height="81.5545" width="95.8265"/>
  <rect id="svg_2" stroke-width="3" stroke="#353846" transform="matrix(-1 0 0 1 95.8848 9.1748)" rx="4.5" height="81.6128" width="92.8265" y="1.5" x="-1.5"/>
  <rect id="svg_3" stroke-width="3" stroke="#353846" fill="white" rx="4.5" height="82.6322" width="92.8265" y="1.5" x="10.6738"/>
  <path id="svg_4" fill="#353846" d="m18.7989,10.2191c0.8112,0 1.4687,-0.65763 1.4687,-1.46882c0,-0.81119 -0.6575,-1.46879 -1.4687,-1.46879c-0.8112,0 -1.4688,0.6576 -1.4688,1.46879c0,0.81119 0.6576,1.46882 1.4688,1.46882z"/>
  <path id="svg_5" fill="#353846" d="m23.2032,10.2191c0.8111,0 1.4687,-0.65763 1.4687,-1.46882c0,-0.81119 -0.6576,-1.46879 -1.4687,-1.46879c-0.8112,0 -1.4688,0.6576 -1.4688,1.46879c0,0.81119 0.6576,1.46882 1.4688,1.46882z"/>
  <path id="svg_6" fill="#353846" d="m27.6114,10.2191c0.8112,0 1.4687,-0.65763 1.4687,-1.46882c0,-0.81119 -0.6575,-1.46879 -1.4687,-1.46879c-0.8112,0 -1.4688,0.6576 -1.4688,1.46879c0,0.81119 0.6576,1.46882 1.4688,1.46882z"/>
  <path id="svg_7" fill="#353846" d="m12.2305,13.2526l84.103,0c0.8446,0 1.5292,0.6846 1.5292,1.5291c0,0.8445 -0.6846,1.5292 -1.5292,1.5292l-84.103,0l0,-3.0583z"/>
  <circle id="svg_8" fill="#34cc81" r="22.1589" cy="51.6404" cx="45.39688"/>
  <circle id="svg_9" fill="#FDFDFE" r="22.6568" cy="47.6568" cx="67.6783"/>
  <path id="svg_10" fill="#353846" d="m88.9824,45.4321c-0.015,-0.1354 -0.0587,-0.2661 -0.1281,-0.3834c-0.0693,-0.1173 -0.1629,-0.2184 -0.2744,-0.2968c-0.1115,-0.0783 -0.2384,-0.132 -0.3722,-0.1576c-0.1339,-0.0255 -0.2716,-0.0223 -0.4041,0.0095c-0.6912,0.1663 -1.4117,0.1678 -2.1036,0.0044c-0.6918,-0.1634 -1.3355,-0.4871 -1.8793,-0.9451c-0.1481,-0.1258 -0.3309,-0.2037 -0.5243,-0.2233c-0.1933,-0.0196 -0.3881,0.02 -0.5584,0.1136c-0.4636,0.2532 -0.9836,0.3852 -1.5118,0.384c-0.6565,-0.0013 -1.2964,-0.2062 -1.8316,-0.5864c-0.5352,-0.3802 -0.9394,-0.9169 -1.1567,-1.5364c-0.0622,-0.1766 -0.1747,-0.3312 -0.3236,-0.4448c-0.1489,-0.1135 -0.3278,-0.181 -0.5146,-0.1942c-1.1466,-0.0848 -2.219,-0.5988 -3.0034,-1.4394c-0.7843,-0.8407 -1.2228,-1.9461 -1.2279,-3.0958c0.0018,-0.2316 0.022,-0.4628 0.0603,-0.6912c0.0219,-0.1365 0.014,-0.2762 -0.0231,-0.4094c-0.0371,-0.1332 -0.1026,-0.2568 -0.1919,-0.3624c-0.4083,-0.4784 -0.681,-1.0574 -0.7896,-1.677c-0.1086,-0.6195 -0.0493,-1.2568 0.172,-1.8456c0.0765,-0.2059 0.0802,-0.4318 0.0103,-0.64c-0.0699,-0.2082 -0.2091,-0.3862 -0.3943,-0.5042c-0.5087,-0.3199 -0.9277,-0.7638 -1.2176,-1.2901c-0.29,-0.5263 -0.4414,-1.1177 -0.44,-1.7186c-0.0017,-0.3418 0.0484,-0.6819 0.1486,-1.0087c0.0412,-0.1317 0.0535,-0.2707 0.036,-0.4076c-0.0174,-0.1368 -0.0642,-0.2683 -0.1371,-0.3855c-0.0729,-0.1171 -0.1702,-0.2172 -0.2853,-0.2933c-0.1151,-0.0761 -0.2452,-0.1265 -0.3815,-0.1478c-4.4686,-0.68 -9.0384,-0.0138 -13.1268,1.9138c-3.0325,-1.437 -6.3476,-2.1791 -9.7034,-2.1721c-3.4165,-0.0005 -6.7894,0.767 -9.8693,2.2457c-3.08,1.4787 -5.7881,3.6307 -7.9244,6.297c-2.1362,2.6663 -3.6458,5.7786 -4.4172,9.1069c-0.7714,3.3282 -0.7848,6.7873 -0.0393,10.1215c0.7455,3.3342 2.2309,6.4581 4.3464,9.1409c2.1154,2.6828 4.8068,4.8558 7.8752,6.3584c3.0683,1.5025 6.4352,2.2962 9.8516,2.3223c3.4164,0.0261 6.7949,-0.716 9.8859,-2.1715c3.4736,1.6359 7.3043,2.3675 11.1363,2.1269c3.832,-0.2406 7.541,-1.4457 10.7827,-3.5032c3.2417,-2.0575 5.911,-4.9008 7.7598,-8.2659c1.8489,-3.3651 2.8175,-7.1428 2.8158,-10.9823c0.0013,-0.7902 -0.0408,-1.5798 -0.1261,-2.3653zm-42.0774,23.2421c-5.5369,0 -10.847,-2.1995 -14.7622,-6.1147c-3.9151,-3.9151 -6.1146,-9.2253 -6.1146,-14.7621c0,-5.5369 2.1995,-10.847 6.1146,-14.7622c3.9152,-3.9152 9.2253,-6.1147 14.7622,-6.1147c2.5824,-0.0041 5.1427,0.476 7.5483,1.4152c-3.3403,2.0329 -6.1011,4.8913 -8.0167,8.3001c-1.9157,3.4087 -2.9219,7.2532 -2.9216,11.1634c0.0003,3.9102 1.0069,7.7546 2.9231,11.1631c1.9162,3.4085 4.6774,6.2665 8.0179,8.2989c-2.407,0.9373 -4.9679,1.4166 -7.551,1.413zm19.4068,0c-2.8309,-0.0017 -5.6319,-0.5792 -8.2327,-1.6973c-2.6008,-1.118 -4.947,-2.7534 -6.896,-4.8066c-1.949,-2.0532 -3.46,-4.4813 -4.4413,-7.1368c-0.9812,-2.6554 -1.4121,-5.4827 -1.2665,-8.3099c0.1456,-2.8272 0.8647,-5.5952 2.1135,-8.1358c1.2488,-2.5406 3.0013,-4.8007 5.1509,-6.6428c2.1496,-1.8421 4.6514,-3.2278 7.3533,-4.0728c2.7019,-0.845 5.5474,-1.1317 8.3636,-0.8425c-0.0132,0.1557 -0.0198,0.3132 -0.0198,0.4722c-0.002,0.7989 0.1715,1.5885 0.5084,2.3128c0.3369,0.7244 0.8288,1.3659 1.4411,1.8791c-0.0888,0.3901 -0.1337,0.789 -0.1339,1.1892c0.0013,1.1433 0.3603,2.2575 1.0269,3.1863c-0.0192,0.1948 -0.0286,0.384 -0.0286,0.5711c0.0049,1.5318 0.5509,3.0126 1.5417,4.1809c0.9907,1.1682 2.3624,1.9488 3.8728,2.2039c0.5633,1.1435 1.5355,2.0338 2.7241,2.4945c1.1886,0.4607 2.5068,0.4582 3.6937,-0.0069c1.1934,0.8226 2.629,1.2195 4.0755,1.1266c0.0214,0.3796 0.0324,0.768 0.0324,1.1596c-0.0063,5.5352 -2.2081,10.8419 -6.1225,14.7555c-3.9143,3.9136 -9.2214,6.1145 -14.7566,6.1197z"/>
  <path id="svg_11" stroke-width="0.2" stroke="#353846" fill="#353846" d="m79.3433,59.4481l0,0l-0.0014,0.0015c-0.7866,0.8777 -1.6587,1.6747 -2.6034,2.3793c-0.2254,0.168 -0.3748,0.4187 -0.4153,0.6968c-0.0406,0.2782 0.0311,0.5611 0.1991,0.7865c0.168,0.2253 0.4187,0.3747 0.6968,0.4153c0.2782,0.0405 0.5611,-0.0311 0.7865,-0.1991l0,0c1.058,-0.7889 2.0347,-1.6813 2.9158,-2.6639l0,0l0.0014,-0.0016c0.1807,-0.2105 0.2717,-0.4834 0.2536,-0.7602c-0.0182,-0.2768 -0.1441,-0.5354 -0.3507,-0.7205c-0.2066,-0.1851 -0.4775,-0.2818 -0.7546,-0.2695c-0.2771,0.0123 -0.5384,0.1327 -0.7278,0.3354z"/>
  <path id="svg_12" stroke-width="0.2" stroke="#353846" fill="#353846" d="m41.0392,30.7846l-0.0001,0c-0.5351,0 -1.0582,0.1587 -1.5031,0.456c-0.4449,0.2973 -0.7917,0.7198 -0.9965,1.2142c-0.2047,0.4944 -0.2583,1.0383 -0.1539,1.5632c0.1044,0.5248 0.362,1.0068 0.7404,1.3852c0.3784,0.3784 0.8605,0.6361 1.3853,0.7404c0.5248,0.1044 1.0688,0.0509 1.5631,-0.1539c0.4944,-0.2048 0.9169,-0.5516 1.2142,-0.9965c0.2973,-0.4449 0.456,-0.968 0.456,-1.5031l0,-0.0001c-0.0008,-0.7172 -0.286,-1.4049 -0.7932,-1.9121c-0.5072,-0.5072 -1.1949,-0.7925 -1.9122,-0.7933zm-0.0003,3.2912c-0.1157,0 -0.2289,-0.0344 -0.3252,-0.0987c-0.0963,-0.0644 -0.1714,-0.1558 -0.2157,-0.2628c-0.0443,-0.1071 -0.0559,-0.2248 -0.0333,-0.3384c0.0226,-0.1136 0.0784,-0.218 0.1603,-0.2999c0.0819,-0.0819 0.1862,-0.1377 0.2998,-0.1603c0.1136,-0.0226 0.2314,-0.011 0.3384,0.0334c0.107,0.0443 0.1985,0.1194 0.2628,0.2157c0.0644,0.0962 0.0987,0.2094 0.0987,0.3252c-0.0002,0.1553 -0.062,0.3041 -0.1718,0.4139c-0.1098,0.1098 -0.2587,0.1716 -0.414,0.1719z"/>
  <path id="svg_13" stroke-width="0.2" stroke="#353846" fill="#353846" d="m61.8204,32.4304l-0.0001,0c-0.5351,0 -1.0581,0.1587 -1.5031,0.456c-0.4449,0.2972 -0.7916,0.7198 -0.9964,1.2141c-0.2048,0.4944 -0.2584,1.0384 -0.154,1.5632c0.1044,0.5248 0.3621,1.0069 0.7405,1.3853c0.3783,0.3783 0.8604,0.636 1.3852,0.7404c0.5248,0.1044 1.0688,0.0508 1.5632,-0.154c0.4944,-0.2047 0.9169,-0.5515 1.2142,-0.9964c0.2973,-0.4449 0.4559,-0.968 0.4559,-1.5031l0,-0.0001c-0.0007,-0.7173 -0.286,-1.405 -0.7932,-1.9122c-0.5072,-0.5072 -1.1949,-0.7925 -1.9122,-0.7932zm-0.0002,3.2911c-0.1158,0 -0.229,-0.0343 -0.3252,-0.0987c-0.0963,-0.0643 -0.1714,-0.1558 -0.2157,-0.2628c-0.0444,-0.107 -0.056,-0.2248 -0.0334,-0.3384c0.0226,-0.1136 0.0784,-0.2179 0.1603,-0.2998c0.0819,-0.0819 0.1863,-0.1377 0.2999,-0.1603c0.1136,-0.0226 0.2313,-0.011 0.3384,0.0333c0.107,0.0443 0.1984,0.1194 0.2628,0.2157c0.0643,0.0963 0.0987,0.2095 0.0987,0.3252c-0.0003,0.1553 -0.0621,0.3042 -0.1719,0.414c-0.1098,0.1098 -0.2586,0.1716 -0.4139,0.1718z"/>
  <path id="svg_14" stroke-width="0.2" stroke="#353846" fill="#353846" d="m56.6095,41.6639l-0.0001,0c-0.5351,0 -1.0582,0.1587 -1.5031,0.456c-0.4449,0.2973 -0.7917,0.7198 -0.9964,1.2142c-0.2048,0.4943 -0.2584,1.0383 -0.154,1.5631c0.1044,0.5248 0.3621,1.0069 0.7404,1.3853c0.3784,0.3784 0.8605,0.636 1.3853,0.7404c0.5248,0.1044 1.0688,0.0508 1.5631,-0.1539c0.4944,-0.2048 0.917,-0.5516 1.2142,-0.9965c0.2973,-0.4449 0.456,-0.968 0.456,-1.5031l0,-0.0001c-0.0009,-0.7172 -0.2862,-1.4048 -0.7934,-1.912c-0.5071,-0.5072 -1.1947,-0.7925 -1.912,-0.7934zm-0.0003,3.2912c-0.1157,-0.0001 -0.2289,-0.0344 -0.3252,-0.0987c-0.0963,-0.0644 -0.1713,-0.1559 -0.2157,-0.2629c-0.0443,-0.107 -0.0559,-0.2247 -0.0333,-0.3383c0.0226,-0.1137 0.0784,-0.218 0.1603,-0.2999c0.0819,-0.0819 0.1862,-0.1377 0.2998,-0.1603c0.1137,-0.0226 0.2314,-0.011 0.3384,0.0333c0.107,0.0444 0.1985,0.1194 0.2629,0.2157c0.0643,0.0963 0.0986,0.2095 0.0987,0.3253c-0.0003,0.1552 -0.0621,0.3041 -0.1719,0.4139c-0.1098,0.1098 -0.2587,0.1716 -0.414,0.1719z"/>
  <path id="svg_15" stroke-width="0.2" stroke="#353846" fill="#353846" d="m68.7423,57.5708l-0.0001,0c-0.5351,0 -1.0582,0.1587 -1.5031,0.4559c-0.4449,0.2973 -0.7917,0.7199 -0.9964,1.2142c-0.2048,0.4944 -0.2584,1.0384 -0.154,1.5632c0.1044,0.5248 0.3621,1.0069 0.7404,1.3852c0.3784,0.3784 0.8605,0.6361 1.3853,0.7405c0.5248,0.1044 1.0688,0.0508 1.5632,-0.154c0.4943,-0.2047 0.9169,-0.5515 1.2142,-0.9964c0.2972,-0.445 0.4559,-0.968 0.4559,-1.5031l0,-0.0002c-0.0009,-0.7172 -0.2862,-1.4048 -0.7934,-1.9119c-0.5071,-0.5072 -1.1947,-0.7925 -1.912,-0.7934zm-0.0002,3.2911c-0.1158,0 -0.229,-0.0343 -0.3253,-0.0987c-0.0963,-0.0643 -0.1713,-0.1558 -0.2157,-0.2628c-0.0443,-0.107 -0.0559,-0.2248 -0.0333,-0.3384c0.0226,-0.1136 0.0784,-0.2179 0.1603,-0.2998c0.0819,-0.082 0.1863,-0.1377 0.2999,-0.1603c0.1136,-0.0226 0.2313,-0.011 0.3383,0.0333c0.1071,0.0443 0.1985,0.1194 0.2629,0.2157c0.0643,0.0963 0.0986,0.2094 0.0987,0.3252c-0.0003,0.1553 -0.0621,0.3042 -0.1719,0.414c-0.1098,0.1098 -0.2587,0.1716 -0.4139,0.1718z"/>
  <path id="svg_16" stroke-width="0.2" stroke="#353846" fill="#353846" d="m32.1701,43.9491l-0.0002,0c-0.535,0 -1.0581,0.1586 -1.503,0.4559c-0.445,0.2973 -0.7917,0.7199 -0.9965,1.2142c-0.2048,0.4944 -0.2584,1.0384 -0.154,1.5632c0.1044,0.5248 0.3621,1.0069 0.7405,1.3852c0.3783,0.3784 0.8604,0.6361 1.3852,0.7405c0.5248,0.1044 1.0688,0.0508 1.5632,-0.154c0.4944,-0.2048 0.9169,-0.5515 1.2142,-0.9964c0.2973,-0.445 0.4559,-0.968 0.4559,-1.5031l0,-0.0001c-0.0007,-0.7173 -0.286,-1.405 -0.7932,-1.9122c-0.5072,-0.5072 -1.1949,-0.7925 -1.9121,-0.7932zm-0.0003,3.2911c-0.1158,0 -0.229,-0.0344 -0.3252,-0.0987c-0.0963,-0.0643 -0.1714,-0.1558 -0.2157,-0.2628c-0.0444,-0.107 -0.056,-0.2248 -0.0334,-0.3384c0.0226,-0.1136 0.0784,-0.2179 0.1603,-0.2999c0.0819,-0.0819 0.1863,-0.1376 0.2999,-0.1602c0.1136,-0.0226 0.2314,-0.011 0.3384,0.0333c0.107,0.0443 0.1985,0.1194 0.2628,0.2157c0.0643,0.0963 0.0987,0.2094 0.0987,0.3252c-0.0002,0.1553 -0.062,0.3042 -0.1718,0.414c-0.1099,0.1098 -0.2587,0.1716 -0.414,0.1718z"/>
  <path id="svg_17" stroke-width="0.2" stroke="#353846" fill="#353846" d="m37.4709,53.091l-0.0002,0c-0.5351,0 -1.0581,0.1587 -1.5031,0.456c-0.4449,0.2973 -0.7916,0.7198 -0.9964,1.2142c-0.2048,0.4944 -0.2584,1.0383 -0.154,1.5632c0.1044,0.5248 0.3621,1.0068 0.7405,1.3852c0.3783,0.3784 0.8604,0.6361 1.3852,0.7404c0.5248,0.1044 1.0688,0.0509 1.5632,-0.1539c0.4943,-0.2048 0.9169,-0.5516 1.2142,-0.9965c0.2973,-0.4449 0.4559,-0.968 0.4559,-1.5031l0,-0.0001c-0.0009,-0.7172 -0.2862,-1.4048 -0.7934,-1.912c-0.5071,-0.5071 -1.1947,-0.7925 -1.9119,-0.7934zm-0.0002,3.2912c-0.1159,0 -0.2291,-0.0344 -0.3253,-0.0987c-0.0964,-0.0644 -0.1714,-0.1558 -0.2157,-0.2628c-0.0444,-0.1071 -0.056,-0.2248 -0.0334,-0.3384c0.0226,-0.1136 0.0784,-0.218 0.1603,-0.2999c0.0819,-0.0819 0.1863,-0.1377 0.2999,-0.1603c0.1136,-0.0226 0.2313,-0.011 0.3384,0.0334c0.107,0.0443 0.1984,0.1194 0.2628,0.2157c0.0643,0.0962 0.0987,0.2095 0.0987,0.3253c-0.0001,0.1553 -0.0619,0.3042 -0.1717,0.414c-0.1098,0.1098 -0.2587,0.1716 -0.414,0.1717z"/>
  <path id="svg_18" stroke-width="0.2" stroke="#353846" fill="#353846" d="m39.3099,40.6449l0,0l-0.0007,-0.0009c-0.1648,-0.225 -0.4117,-0.376 -0.687,-0.4203c-0.2754,-0.0442 -0.5572,0.0219 -0.7841,0.184c-0.227,0.1621 -0.381,0.4071 -0.4285,0.682c-0.0475,0.2748 0.0153,0.5573 0.1747,0.7862l-0.0001,0l0.0008,0.001l1.3395,1.8743l0,0c0.0809,0.1133 0.1834,0.2095 0.3016,0.2831c0.1181,0.0737 0.2496,0.1234 0.3869,0.1462c0.1374,0.0228 0.2779,0.0184 0.4135,-0.0131c0.1356,-0.0314 0.2637,-0.0893 0.377,-0.1703c0.1132,-0.0809 0.2094,-0.1834 0.2831,-0.3016c0.0736,-0.1181 0.1233,-0.2496 0.1461,-0.3869c0.0229,-0.1374 0.0184,-0.2779 -0.013,-0.4135c-0.0315,-0.1356 -0.0894,-0.2637 -0.1703,-0.377l0,0l-1.3395,-1.8732z"/>
  <path id="svg_19" stroke-width="0.2" stroke="#353846" fill="#353846" d="m67.6083,48.4139l0,0c0.1635,0.2287 0.4112,0.3831 0.6886,0.4292c0.2773,0.0461 0.5616,-0.0198 0.7904,-0.1833c0.2287,-0.1636 0.3831,-0.4112 0.4292,-0.6886c0.0462,-0.2774 -0.0198,-0.5617 -0.1833,-0.7904l-1.2742,-1.7827l-0.0001,0c-0.0809,-0.1133 -0.1834,-0.2095 -0.3015,-0.2832c-0.1182,-0.0736 -0.2497,-0.1233 -0.387,-0.1461c-0.1374,-0.0228 -0.2779,-0.0184 -0.4135,0.0131c-0.1356,0.0314 -0.2637,0.0893 -0.377,0.1703c-0.1132,0.0809 -0.2094,0.1834 -0.2831,0.3016c-0.0736,0.1181 -0.1233,0.2496 -0.1461,0.3869c-0.0229,0.1374 -0.0184,0.2779 0.0131,0.4135c0.0314,0.1356 0.0893,0.2637 0.1702,0.377c0,0 0,0 0,0l1.2743,1.7827z"/>
  <path id="svg_20" stroke-width="0.2" stroke="#353846" fill="#353846" d="m43.9033,60.4958c-0.2811,0 -0.5507,0.1117 -0.7495,0.3105c-0.1988,0.1987 -0.3104,0.4683 -0.3104,0.7494l0,2.3774c0,0.2811 0.1116,0.5507 0.3104,0.7494c0.1988,0.1988 0.4684,0.3105 0.7495,0.3105c0.2811,0 0.5507,-0.1117 0.7495,-0.3105c0.1987,-0.1987 0.3104,-0.4683 0.3104,-0.7494l0,-2.3774c0,-0.2811 -0.1117,-0.5507 -0.3104,-0.7494c-0.1988,-0.1988 -0.4684,-0.3105 -0.7495,-0.3105z"/>
  <path id="svg_21" stroke-width="0.2" stroke="#353846" fill="#353846" d="m57.4072,54.2703l-2.8204,1.0712c-0.0001,0 -0.0001,0 -0.0001,0c-0.1302,0.0494 -0.2495,0.124 -0.3509,0.2195c-0.1015,0.0954 -0.1831,0.21 -0.2403,0.337c-0.0572,0.127 -0.0888,0.2641 -0.0931,0.4034c-0.0042,0.1392 0.0191,0.2779 0.0685,0.4082c0.0493,0.1303 0.1239,0.2495 0.2194,0.351c0.0955,0.1014 0.21,0.1831 0.337,0.2403c0.1271,0.0572 0.2641,0.0888 0.4034,0.093c0.1392,0.0042 0.278,-0.019 0.4082,-0.0684l0.0001,0l2.8205,-1.0713l0,0l0.001,-0.0004c0.2598,-0.1019 0.469,-0.3021 0.5821,-0.5573c0.1131,-0.2552 0.121,-0.5446 0.0219,-0.8056c-0.099,-0.2609 -0.297,-0.4723 -0.5509,-0.5881c-0.2112,-0.0964 -0.4468,-0.1202 -0.6709,-0.0702l0,-0.0138l-0.1355,0.0515z"/>
  <path id="svg_22" stroke-width="0.2" stroke="#353846" fill="#353846" d="m81.9378,50.6191l-2.1814,0.8288c-0.1302,0.0493 -0.2495,0.1239 -0.3509,0.2194c-0.1014,0.0954 -0.183,0.21 -0.2402,0.337c-0.0571,0.127 -0.0887,0.264 -0.0929,0.4032c-0.0042,0.1392 0.019,0.2779 0.0684,0.4082c0.0494,0.1302 0.1239,0.2494 0.2194,0.3508c0.0955,0.1015 0.21,0.1831 0.337,0.2403c0.127,0.0571 0.264,0.0887 0.4033,0.0929c0.1392,0.0042 0.2779,-0.019 0.4081,-0.0684l0,0l2.1821,-0.8289l0,0c0.2628,-0.0998 0.4752,-0.2999 0.5904,-0.5563c0.1152,-0.2565 0.1239,-0.5482 0.024,-0.811c-0.0998,-0.2627 -0.2999,-0.4751 -0.5564,-0.5903c-0.213,-0.0958 -0.4504,-0.118 -0.6753,-0.0655l0,-0.0117l-0.1356,0.0515z"/>
 </g>
</svg>