<svg width="124" height="108" xmlns="http://www.w3.org/2000/svg" fill="none">
 <g>
  <title>Layer 1</title>
  <path d="m43,92l29.7333,0l2.2667,9l-35,0l3,-9z" fill="#34cc81" id="svg_1"/>
  <path d="m123.86,96.9167c-0.002,-0.0954 -0.012,-0.189 -0.028,-0.2831c-0.037,-0.2206 -0.133,-0.4664 -0.246,-0.6476c-0.017,-0.0278 -9.478,-15.1978 -9.478,-15.1978l0,-60.1481c0,-3.6614 -2.978,-6.6401 -6.64,-6.6401l-11.6132,0c-1.0004,0 -1.811,0.8109 -1.811,1.811c0,1.0001 0.8106,1.811 1.811,1.811l11.6132,0c1.665,0 3.018,1.354 3.018,3.0181l0,58.8558l-4.452,0l0,-54.3047c0,-1.7529 -1.427,-3.1787 -3.179,-3.1787l-81.8493,0c-1.7526,0 -3.1787,1.4261 -3.1787,3.1787l0,54.3047l-4.4527,0l0,-58.8558c0,-1.6644 1.354,-3.0181 3.0181,-3.0181l80.8507,0c1.0003,0 1.8109,-0.8109 1.8109,-1.811c0,-1.0001 -0.8106,-1.811 -1.8109,-1.811l-80.8507,0c-3.6614,0 -6.64007,2.9787 -6.64007,6.6401l0,60.1481c0,0 -9.47219,15.1884 -9.47824,15.1978c-0.17781,0.2855 -0.27409,0.6208 -0.27409,0.9582l0,5.3578c0,3.142 2.55607,5.698 5.69783,5.698l112.46517,0c3.141,0 5.698,-2.556 5.698,-5.698l0,-5.3578c0,-0.0092 0,-0.0184 -0.001,-0.0275zm-102.4113,-71.2825l80.9633,0l0,53.8617l-80.9633,0l0,-53.8617zm-8.8807,57.4834l98.724,0l7.494,12.0157l-39.149,0l-1.7655,-5.4216c-0.4666,-1.4338 -1.7935,-2.3971 -3.3016,-2.3971l-13.7665,0c-1.0003,0 -1.8109,0.8109 -1.8109,1.8109c0,1.0001 0.8106,1.811 1.8109,1.811l13.6578,0l1.3671,4.197l-27.7958,0l1.3671,-4.197l13.0336,0c1.0003,0 1.8109,-0.8109 1.8109,-1.811c0,-1 -0.8106,-1.8109 -1.8109,-1.8109l-13.1423,0c-1.5081,0 -2.835,0.9633 -3.3016,2.3969l-1.7655,5.4218l-39.14915,0l7.49335,-12.0157zm107.671,19.1844c0,1.145 -0.932,2.076 -2.077,2.076l-112.46417,0c-1.14475,0 -2.07588,-0.931 -2.07588,-2.076l0,-3.5468l116.61705,0l0,3.5468z" fill="#353846" id="svg_2"/>
  <path d="m90.3551,24.2948l0,32.4094c0,2.28 -1.8716,4.1516 -4.1516,4.1516c-1.2897,0 -3.9116,-0.5661 -6.236,-1.543c-1.1496,-0.4831 -2.123,-1.025 -2.7821,-1.5701c-0.7027,-0.5811 -0.785,-0.9397 -0.785,-1.0385l0,-32.4094l13.9547,0z" fill="#34cc81" stroke="#353846" stroke-width="3" id="svg_3"/>
  <path d="m79.0525,56.7041c0,1.5454 0.4954,2.9795 1.3354,4.1516l-42.4105,0c-3.8626,0 -6.9774,-3.1148 -6.9774,-6.9774l0,-48.8783c0,-1.933 1.567,-3.5 3.5,-3.5l41.0525,0c1.933,0 3.5,1.567 3.5,3.5l0,51.7041z" fill="white" stroke="#353846" stroke-width="3" id="svg_4"/>
  <path d="m39,17l0,14l25,0l0,-14l-25,0z" fill="#34cc81" id="svg_5"/>
  <path d="m42.2988,26.9462l0,-13.9547l25.4463,0l0,13.9547l-25.4463,0z" stroke="#353846" stroke-width="3" id="svg_6"/>
  <path d="m41,38.5001c0,-0.8284 0.6716,-1.5 1.5,-1.5l25,0c0.8284,0 1.5,0.6716 1.5,1.5c0,0.8284 -0.6716,1.5 -1.5,1.5l-25,0c-0.8284,0 -1.5,-0.6716 -1.5,-1.5z" fill="#353846" id="svg_7"/>
  <path d="m41,44.5c0,-0.8284 0.6716,-1.5 1.5,-1.5l25,0c0.8284,0 1.5,0.6716 1.5,1.5c0,0.8284 -0.6716,1.5 -1.5,1.5l-25,0c-0.8284,0 -1.5,-0.6716 -1.5,-1.5z" fill="#353846" id="svg_8"/>
  <path d="m41,50.5c0,-0.8284 0.6716,-1.5 1.5,-1.5l25,0c0.8284,0 1.5,0.6716 1.5,1.5c0,0.8284 -0.6716,1.5 -1.5,1.5l-25,0c-0.8284,0 -1.5,-0.6716 -1.5,-1.5z" fill="#353846" id="svg_9"/>
 </g>

</svg>