<?xml version="1.0" encoding="utf-8"?>
<!-- Generator: Adobe Illustrator 26.5.0, SVG Export Plug-In . SVG Version: 6.00 Build 0)  -->
<svg version="1.1" id="Ebene_1" xmlns="http://www.w3.org/2000/svg" xmlns:xlink="http://www.w3.org/1999/xlink" x="0px" y="0px"
	 viewBox="0 0 802.4 77.7" style="enable-background:new 0 0 802.4 77.7;" xml:space="preserve">
<style type="text/css">
	.st0{fill:#34CC81;}
	.st1{fill:#353740;}
</style>
<path class="st0" d="M35.5,0C14.4,0,0,12.8,0,35.9v40.3h20.8V59.7h29.2v16.5h21.1V35.9C71.1,12.8,56.7,0,35.5,0z M49.9,43.3H20.8V34
	c0-11.3,6-16.5,14.6-16.5c8.5,0,14.5,5.2,14.5,16.5V43.3z"/>
<path class="st0" d="M191.3,23.2c0-3.7,3.2-6.7,12.1-6.7c6.5,0,13.6,1.9,20.7,5.8l6.5-15.7C223.2,2.3,213.2,0,203.4,0
	c-22.2,0-33.1,10.9-33.1,24.2c0,27.7,42.5,19.1,42.5,31c0,3.6-3.4,6.1-12.2,6.1c-8.6,0-18-3-24.6-7.4l-6.9,15.6
	c7,4.9,19.2,8.2,31.5,8.2c22.2,0,33.1-11.1,33.1-24.1C233.6,26.1,191.3,34.6,191.3,23.2z"/>
<path class="st1" d="M241.7,1.5v4.9h26.9v69.8h5.5V6.4h26.9V1.5H241.7z"/>
<path class="st1" d="M420.3,1c-18.3,0-30.4,10.9-30.4,32.4v42.8h5.4V53.1h49.9v23.1h5.5V33.4C450.7,11.8,438.7,1,420.3,1z
	 M445.2,48.2h-49.9V32.9c0-18,9.5-26.9,25-26.9c15.5,0,25,8.9,25,26.9V48.2z"/>
<path class="st1" d="M503.2,71.7c-19.1,0-33.5-14.1-33.5-32.9c0-18.8,14.4-32.9,33.5-32.9c8.8,0,16.5,2.6,23,8.9l3.4-3.5
	C523,4.4,513.5,1,503,1c-22.2,0-38.7,16.1-38.7,37.9c0,21.8,16.5,37.9,38.7,37.9c10.6,0,20.1-3.5,26.6-10.5l-3.4-3.5
	C519.7,69,511.9,71.7,503.2,71.7z"/>
<path class="st1" d="M709.7,1.5v64.9L658.9,1.5h-4.6v74.7h5.5V11.3l50.9,64.9h4.5V1.5H709.7z"/>
<path class="st1" d="M796.8,64.9c-6.1,4.9-13.3,6.8-21.2,6.8c-19.4,0-33.8-14.2-33.8-32.9c0-18.8,14.4-32.9,33.8-32.9
	c9.1,0,16.8,2.4,23.4,8.9l3.4-3.6C795.8,4.4,786.3,1,775.5,1c-22.6,0-39.2,16.1-39.2,37.9c0,21.8,16.5,37.9,39.1,37.9
	c10.2,0,19.9-3.2,26.7-9.6v-28h-5.2V64.9z"/>
<path class="st0" d="M121.5,1.5H86.2v16.9h21.1h3.2h10.2c12.7,0,21.2,7.6,21.2,20.5c0,12.9-8.6,20.5-21.2,20.5h-13.3v-16H86.2v32.9
	h35.3c24.8,0,41.7-14.4,41.7-37.4C163.2,15.9,146.3,1.5,121.5,1.5z"/>
<path class="st1" d="M316.4,47v29.2h5.5V51.8h19c2.6,0,4.9-0.2,7.3-0.5l17.8,25h6.2l-18.7-26.1c11.1-3.3,17.5-11.5,17.5-23.4
	c0-15.8-11.3-25.2-30.1-25.2h-24.5v4.9h24.5c16,0,24.5,7.4,24.5,20.3c0,12.8-8.5,20.3-24.5,20.3H316.4z"/>
<polygon class="st1" points="553.2,49.5 553.2,6.4 553.2,1.5 547.8,1.5 547.8,76.2 553.2,76.2 553.2,66.2 553.2,56.6 "/>
<polygon class="st1" points="568.9,35.4 601.8,1.5 595.2,1.5 562,35.6 597.4,76.2 604,76.2 "/>
<polygon class="st1" points="622.8,1.5 622.8,24.6 622.8,30.9 622.8,76.2 628.2,76.2 628.2,30.9 628.2,24.6 628.2,1.5 "/>
</svg>
