<svg width="85" height="98" xmlns="http://www.w3.org/2000/svg" fill="none">

 <g>
  <title>Layer 1</title>
  <path id="svg_1" fill="#34cc81" d="m56.9534,8.47491c11.2432,0 20.3578,9.11459 20.3578,20.35779c0,11.2431 -9.1146,20.3577 -20.3578,20.3577l-0.2262,0c-7.0472,-0.0831 -13.5502,-3.805 -17.1909,-9.8395c-1.9041,-3.1797 -2.9198,-6.8122 -2.9406,-10.5182c0.0193,-0.9837 0.0948,-1.9654 0.2262,-2.9407c1.4134,-10.0216 10.0108,-17.45973 20.1315,-17.41709z"/>
  <path id="svg_2" fill="#353846" d="m61.7643,19.8492c-1.4365,0.0013 -2.6022,-1.1622 -2.6038,-2.5988c0,-0.0385 0.0009,-0.077 0.0024,-0.1156c0,-1.4365 1.1647,-2.6012 2.6012,-2.6012c1.4366,0 2.6012,1.1647 2.6012,2.6012c0,1.2493 1.0127,2.262 2.262,2.262c1.2493,0 2.2619,-1.0127 2.2619,-2.262c0.0336,-3.1166 -1.9937,-5.8812 -4.9763,-6.7859l0,-1.13087c0,-1.24929 -1.0127,-2.26198 -2.262,-2.26198c-1.2493,0 -2.262,1.01269 -2.262,2.26198l0,1.24407c-2.8529,0.9722 -4.7653,3.6589 -4.7501,6.6727c-0.0005,3.9538 3.1718,7.1765 7.1251,7.2384c1.4365,0 2.6012,1.1646 2.6012,2.6012c0,1.4365 -1.1647,2.6012 -2.6012,2.6012c-1.4365,0 -2.6012,-1.1647 -2.6012,-2.6012c0,-1.2493 -1.0127,-2.262 -2.262,-2.262c-1.2493,0 -2.2619,1.0127 -2.2619,2.262c0.0047,3.0339 1.9011,5.7429 4.7501,6.7859l0,1.4703c0,1.2493 1.0127,2.262 2.262,2.262c1.2493,0 2.262,-1.0127 2.262,-2.262l0,-1.4703c3.7478,-1.1997 5.8132,-5.2106 4.6135,-8.9583c-0.9416,-2.9426 -3.6725,-4.9426 -6.7621,-4.9528z"/>
  <path id="svg_3" fill="#353846" d="m84.386,22.2241c-0.2186,-12.49056 -10.5214,-22.439 -23.0119,-22.22057c-10.231,0.17903 -19.0676,7.20393 -21.5488,17.13117l-37.09625,0c-1.12265,-0.0626 -2.08316,0.7968 -2.14573,1.9195c-0.00216,0.0387 -0.00324,0.0775 -0.00324,0.1162l0,14.3635c0,0.113 0,0.2262 0.113,0.2262l0,0.3393c0.113,0 0.113,0.113 0.113,0.2262l0.113,0c0.113,0.113 -0.113,0.113 0,0.113l24.54222,27.1436l0,34.1558c0.0619,0.9034 0.6321,1.6929 1.4703,2.0358l1.0179,0.2262c0.5743,-0.0162 1.1287,-0.2141 1.5833,-0.5654l17.5304,-14.816c0.5816,-0.3792 0.957,-1.0046 1.0179,-1.6965l0,-19.3399l15.2683,-16.8516l-0.113,0c11.8972,-0.7185 21.1713,-10.5877 21.1496,-22.5065zm-45.2394,-0.5655l0,0.6787c-0.0502,2.88 0.5286,5.7362 1.6965,8.3692l-35.73908,0l0,-9.0479l34.04258,0zm4.8632,37.5487c-0.362,0.3983 -0.5278,0.9373 -0.4525,1.4703l0,19.2266l-13.5718,10.9707l0,-30.1973c0,-0.5655 0,-1.1309 -0.4524,-1.4703l-21.71467,-23.9768l35.51287,0c3.4494,4.6631 8.4719,7.9178 14.1373,9.1608l-13.4588,14.816zm17.7565,-18.8875l-0.2262,0c-9.9056,-0.1238 -17.8702,-8.1893 -17.8696,-18.0957c0.0143,-0.8714 0.0899,-1.7405 0.2263,-2.6012c1.4367,-9.89023 10.6188,-16.74325 20.509,-15.30649c9.8902,1.43676 16.7432,10.61889 15.3065,20.50909c-1.2943,8.9102 -8.9423,15.5134 -17.946,15.4943z"/>
 </g>
</svg>